<svg height="512pt" viewBox="0 -71 512.01686 512" width="512pt" xmlns="http://www.w3.org/2000/svg"><path d="m297.636719 8.929688-9.3125-8.9218755-114.03125 87.4453125 38.914062 83.128906 86.839844-96.492187c17.03125-18.921875 15.972656-47.546875-2.410156-65.160156zm0 0" fill="#ffa78f"/><path d="m365.578125 282.816406-39.167969-63.851562 21.332032-54.679688-173.449219-76.835937-35.539063 157.796875 35.539063 125.414062h90.109375zm-126.660156-8.457031c-8.675781 0-17.300781-3.417969-23.757813-10.109375-12.421875-12.871094-12.238281-33.632812.410156-46.28125l21.589844-21.589844 56.910156 34.492188-34.863281 36.5c-6.019531 4.6875-13.171875 6.988281-20.289062 6.988281zm0 0" fill="#ffbfab"/><path d="m58.867188 177.738281h-58.867188v192.917969h174.292969v-283.203125zm0 0" fill="#ffcebf"/><path d="m258.996094 229.003906 241.671875-98.699218 11.347656 27.789062-241.671875 98.703125zm0 0" fill="#5a5a5a"/></svg>